<?xml version="1.0" encoding="UTF-8"?><svg id="Layer_1" xmlns="http://www.w3.org/2000/svg" xmlns:xlink="http://www.w3.org/1999/xlink" viewBox="0 0 295.59 295.71"><defs><linearGradient id="linear-gradient" x1="294.3" y1="288.89" x2="1.34" y2="6.87" gradientUnits="userSpaceOnUse"><stop offset="0" stop-color="#08c972"/><stop offset="1" stop-color="#60df54"/></linearGradient></defs><path d="m281.96,295.71H13.75c-7.53,0-13.75-6.1-13.75-13.75V13.75C0,6.34,6.1,0,13.75,0h268.09c7.53,0,13.75,6.1,13.75,13.75v268.09c0,7.77-6.1,13.87-13.63,13.87Z" style="fill:url(#linear-gradient); stroke-width:0px;"/><path d="m59.65,219.16v-120.83c-.01-3.11,2.51-5.63,5.62-5.63h23.97c3.11,0,5.63,2.52,5.63,5.63v85.61c0,3.11,2.52,5.63,5.63,5.63h23.97c3.11,0,5.63-2.52,5.63-5.63v-107.62c0-3.11,2.52-5.63,5.63-5.63h59.19c3.11,0,5.63,2.52,5.63,5.63v29.6h-29.6c-3.11,0-5.63,2.52-5.63,5.63v23.97c0,3.11,2.52,5.63,5.63,5.63h23.97c3.11,0,5.63-2.52,5.63-5.63v-29.6h29.6c3.11,0,5.63,2.52,5.63,5.63v59.19c0,3.11-2.52,5.63-5.63,5.63h-59.19c-3.11,0-5.63,2.52-5.63,5.63v37.18c0,3.11-2.52,5.63-5.63,5.63h-94.4c-3.11,0-5.63-2.52-5.63-5.63Z" style="fill:#fff; stroke-width:0px;"/><rect x="212.04" y="62.45" width="7.93" height="7.93" style="fill:#fff; stroke-width:0px;"/><rect x="225.51" y="77.78" width="5.46" height="5.46" style="fill:#fff; stroke-width:0px;"/><rect x="228.24" y="62.45" width="4.07" height="4.07" style="fill:#fff; stroke-width:0px;"/><rect x="242.79" y="79.17" width="4.07" height="4.07" style="fill:#fff; stroke-width:0px;"/><rect x="234.16" y="53.71" width="2.04" height="2.04" style="fill:#fff; stroke-width:0px;"/><rect x="245.23" y="52.28" width="1.64" height="1.64" style="fill:#fff; stroke-width:0px;"/><rect x="239.56" y="63.47" width="2.04" height="2.04" style="fill:#fff; stroke-width:0px;"/><rect x="212.8" y="85.32" width="4.5" height="4.5" style="fill:#fff; stroke-width:0px;"/><rect x="233.56" y="90.3" width="3.23" height="3.23" style="fill:#fff; stroke-width:0px;"/></svg>